<svg width="16" height="16" viewBox="0 0 16 16" fill="none" xmlns="http://www.w3.org/2000/svg">
<path d="M13.0833 14.6667L11.722 13.4667L10.9547 12.7533L10.1433 12L10.4767 13.1727H3.29801C2.57909 13.1701 1.99816 12.5856 2 11.8667V3.30467C1.9989 2.58626 2.57961 2.00257 3.29801 2H11.7853C12.5037 2.00257 13.0844 2.58626 13.0833 3.30467V14.6667ZM10.0667 9.00533C9.78557 9.38235 9.38086 9.64853 8.92334 9.75733C9.11134 9.99733 9.33801 10.2687 9.34001 10.2713C10.1047 10.2875 10.8288 9.92782 11.278 9.30867C11.255 8.02514 10.9433 6.76327 10.366 5.61667C9.85776 5.21784 9.2391 4.98509 8.59401 4.95H8.58668L8.49801 5.05133C9.07422 5.2061 9.61156 5.48 10.0753 5.85533C9.48523 5.53094 8.83765 5.32444 8.16868 5.24733C7.7435 5.20011 7.31417 5.20436 6.89001 5.26C6.86002 5.26059 6.83014 5.26372 6.80068 5.26933H6.78201C6.28491 5.32657 5.79988 5.46155 5.34468 5.66933C5.11668 5.774 4.97668 5.85 4.97068 5.85267C4.96468 5.85533 4.97068 5.85267 4.97068 5.848C5.4626 5.4611 6.03012 5.18154 6.63668 5.02733L6.57001 4.95133H6.56601C5.92094 4.98651 5.3023 5.21925 4.79401 5.618C4.21461 6.76382 3.90278 8.02619 3.88201 9.31C4.32556 9.93325 5.05068 10.2943 5.81534 10.2727C5.81534 10.2727 6.05401 9.982 6.24001 9.74667C5.79401 9.63458 5.40102 9.37055 5.12868 9C5.13334 9.00333 5.19934 9.048 5.30601 9.10667C5.31317 9.11509 5.32203 9.1219 5.33201 9.12667C5.34046 9.13251 5.34938 9.13764 5.35868 9.142C5.36922 9.14679 5.37927 9.15259 5.38868 9.15933C5.53742 9.24132 5.69181 9.31261 5.85068 9.37267C6.15273 9.49227 6.46516 9.58377 6.78401 9.646C7.06317 9.69863 7.34659 9.72541 7.63068 9.726C7.89703 9.72597 8.16282 9.70142 8.42468 9.65267C8.74004 9.59729 9.04804 9.50603 9.34268 9.38067C9.59718 9.28278 9.84 9.1569 10.0667 9.00533ZM8.70801 8.72067C8.41796 8.74596 8.14213 8.59061 8.01342 8.32946C7.8847 8.06831 7.9295 7.75493 8.12622 7.5403C8.32295 7.32567 8.63126 7.25381 8.9026 7.35936C9.17395 7.4649 9.35267 7.72619 9.35268 8.01733C9.36737 8.38927 9.07917 8.70337 8.70734 8.72067H8.70801ZM6.39601 8.72067C6.03124 8.68887 5.75131 8.38349 5.75131 8.01733C5.75131 7.65118 6.03124 7.34579 6.39601 7.314C6.56404 7.31451 6.7247 7.38306 6.84134 7.504C6.9737 7.64138 7.0457 7.82595 7.04134 8.01667C7.05677 8.38925 6.76787 8.70409 6.39534 8.72067H6.39601Z" fill="white"/>
</svg>

