<svg width="16" height="16" viewBox="0 0 16 16" fill="none" xmlns="http://www.w3.org/2000/svg">
<path d="M13.33 4.4585C13.9276 4.10122 14.3748 3.53865 14.588 2.87583C14.0264 3.20903 13.412 3.44375 12.7713 3.56983C11.8831 2.63018 10.4757 2.40151 9.33561 3.0116C8.19554 3.62169 7.60501 4.91949 7.89401 6.17983C5.59375 6.06435 3.45065 4.97777 1.99801 3.1905C1.2399 4.49811 1.62731 6.16968 2.88334 7.0105C2.42915 6.99589 1.98503 6.87292 1.58801 6.65183C1.58801 6.66383 1.58801 6.67583 1.58801 6.68783C1.58827 8.04993 2.54826 9.22322 3.88334 9.49316C3.46205 9.60778 3.02015 9.62465 2.59134 9.5425C2.96681 10.7073 4.04038 11.5054 5.26401 11.5292C4.25056 12.3246 2.99899 12.7559 1.71068 12.7538C1.48232 12.7542 1.25415 12.741 1.02734 12.7145C2.3356 13.5552 3.85826 14.0014 5.41334 13.9998C7.57684 14.0147 9.65603 13.1618 11.1858 11.6318C12.7156 10.1019 13.5684 8.02266 13.5533 5.85916C13.5533 5.73516 13.5505 5.61183 13.5447 5.48916C14.105 5.08423 14.5886 4.5826 14.9727 4.00783C14.4507 4.23921 13.897 4.39111 13.33 4.4585Z" fill="white"/>
</svg>
