<svg width="16" height="16" viewBox="0 0 16 16" fill="none" xmlns="http://www.w3.org/2000/svg">
<path fill-rule="evenodd" clip-rule="evenodd" d="M2 14L2 12.6667L2 3.33333L2 2L14 2L14 3.33333L14 12.6667L12.6667 12.6667L12.6667 3.33333L3.33333 3.33333L3.33333 12.6667L14 12.6667L14 14L2 14ZM4.66667 8.66667L4.66667 7.33333L8.66667 7.33333L8.66667 6L10 6L10 7.33333L11.3333 7.33333L11.3333 8.66667L10 8.66667L10 10L8.66667 10L8.66667 8.66667L4.66667 8.66667ZM8.66667 10L8.66667 11.3333L7.33333 11.3333L7.33333 10L8.66667 10ZM8.66667 6L7.33333 6L7.33333 4.66667L8.66667 4.66667L8.66667 6Z" fill="#FFD369"/>
</svg>
