<svg width="16" height="16" viewBox="0 0 16 16" fill="none" xmlns="http://www.w3.org/2000/svg">
<path fill-rule="evenodd" clip-rule="evenodd" d="M14 2L14 3.33333L14 12.6667L14 14L2 14L2 12.6667L2 3.33333L3.33333 3.33333L3.33333 12.6667L12.6667 12.6667L12.6667 3.33333L2 3.33333L2 2L14 2ZM11.3333 7.33333L11.3333 8.66667L7.33333 8.66667L7.33333 10L6 10L6 8.66667L4.66667 8.66667L4.66667 7.33333L6 7.33333L6 6L7.33333 6L7.33333 7.33333L11.3333 7.33333ZM7.33333 6L7.33333 4.66667L8.66667 4.66667L8.66667 6L7.33333 6ZM7.33333 10L8.66667 10L8.66667 11.3333L7.33333 11.3333L7.33333 10Z" fill="#FFD369"/>
</svg>
