<svg width="24" height="24" viewBox="0 0 24 24" fill="none" xmlns="http://www.w3.org/2000/svg">
<rect width="24" height="24" fill="#111111"/>
<path fill-rule="evenodd" clip-rule="evenodd" d="M6.66663 11.3333L6.66663 12.6666L14.6666 12.6666L14.6666 14L16 14L16 12.6666L17.3333 12.6666L17.3333 11.3333L16 11.3333L16 9.99998L14.6666 9.99998L14.6666 11.3333L6.66663 11.3333ZM13.3333 8.66665L14.6666 8.66665L14.6666 9.99998L13.3333 9.99998L13.3333 8.66665ZM13.3333 8.66665L12 8.66665L12 7.33331L13.3333 7.33331L13.3333 8.66665ZM13.3333 15.3333L14.6666 15.3333L14.6666 14L13.3333 14L13.3333 15.3333ZM13.3333 15.3333L12 15.3333L12 16.6666L13.3333 16.6666L13.3333 15.3333Z" fill="#FFD369"/>
</svg>
