<svg width="16" height="16" viewBox="0 0 16 16" fill="none" xmlns="http://www.w3.org/2000/svg">
<path fill-rule="evenodd" clip-rule="evenodd" d="M11.3333 1.33333H10V2.66667H6V1.33333H4.66667V2.66667H3.33333H2V4V5.33333V6.66667V13.3333V14.6667L3.33333 14.6667H12.6667L14 14.6667V13.3333V6.66667V5.33333V4V2.66667H12.6667H11.3333V1.33333ZM4.66667 4H6H10H11.3333H12.6667V5.33333H3.33333V4H4.66667ZM3.33333 13.3333V6.66667H12.6667V13.3333H3.33333ZM7.33333 10.6667H6V12H7.33333V10.6667ZM7.33333 9.33333V8H6V9.33333H7.33333ZM8.66667 9.33333H7.33333V10.6667L8.66667 10.6667L8.66667 12H10V10.6667L8.66667 10.6667V9.33333ZM8.66667 9.33333L8.66667 8H10V9.33333H8.66667Z" fill="#FF6B69"/>
</svg>
