<svg width="16" height="16" viewBox="0 0 16 16" fill="none" xmlns="http://www.w3.org/2000/svg">
<path fill-rule="evenodd" clip-rule="evenodd" d="M3.33341 3.33331H4.66675V4.66665H3.33341V3.33331ZM4.66671 4.66667H6.00004V6H4.66671V4.66667ZM7.33337 7.33333H6.00004V6H7.33337V7.33333ZM8.66671 7.33333H7.33337L7.33337 8.66667L6.00004 8.66667V10H4.66671L4.66671 11.3333H3.33337V12.6667H4.66671V11.3333H6.00004V10H7.33337V8.66667H8.66671V10H10V11.3333H11.3334V12.6667H12.6667V11.3333H11.3334V10H10V8.66667L8.66671 8.66667V7.33333ZM10 6V7.33333H8.66671V6H10ZM11.3334 4.66667V6H10V4.66667H11.3334ZM11.3334 4.66667V3.33333H12.6667V4.66667L11.3334 4.66667Z" fill="#FFD369"/>
</svg>
