<svg width="17" height="16" viewBox="0 0 17 16" fill="none" xmlns="http://www.w3.org/2000/svg">
<path d="M8.07794 1.33325C4.8159 1.33283 2.03515 3.69858 1.51287 6.91854C0.990597 10.1385 2.881 13.2619 5.97594 14.2926C6.30927 14.3526 6.42861 14.1479 6.42861 13.9719C6.42861 13.8139 6.42327 13.3953 6.42127 12.8386C4.57127 13.2386 4.18061 11.9466 4.18061 11.9466C4.05882 11.5446 3.79699 11.1995 3.44261 10.9739C2.84261 10.5613 3.48861 10.5706 3.48861 10.5706C3.91573 10.6292 4.29164 10.8822 4.50661 11.2559C4.68856 11.5868 4.99511 11.8312 5.35814 11.935C5.72118 12.0388 6.11062 11.9933 6.43994 11.8086C6.47089 11.4713 6.62097 11.156 6.86327 10.9193C5.38727 10.7519 3.83527 10.1813 3.83527 7.63259C3.82708 6.97338 4.07187 6.33612 4.51927 5.85192C4.31684 5.27813 4.34068 4.64875 4.58594 4.09192C4.58594 4.09192 5.14394 3.91259 6.41394 4.77259C7.50317 4.47392 8.65271 4.47392 9.74194 4.77259C11.0126 3.91192 11.5699 4.09192 11.5699 4.09192C11.8163 4.64849 11.8402 5.2783 11.6366 5.85192C12.0856 6.33607 12.3302 6.97501 12.3193 7.63525C12.3193 10.1906 10.7659 10.7519 9.28461 10.9166C9.60416 11.2433 9.76804 11.6915 9.73461 12.1473C9.73461 13.0366 9.72661 13.7539 9.72661 13.9719C9.72661 14.1499 9.84527 14.3566 10.1846 14.2913C13.2783 13.2588 15.1666 10.1352 14.6433 6.91613C14.1199 3.69702 11.3393 1.33251 8.07794 1.33325Z" fill="white" fill-opacity="0.4"/>
</svg>
