<svg width="16" height="16" viewBox="0 0 16 16" fill="none" xmlns="http://www.w3.org/2000/svg">
<path fill-rule="evenodd" clip-rule="evenodd" d="M5.99999 1.33337H3.33333V2.6667H2V4.00003H3.33334V2.66671H5.99999V1.33337ZM12.6667 1.33337H10V2.6667H8.66668V4.00003H10V2.66671H12.6667V1.33337ZM2.00001 4.00004H0.666679V8.00004H2V9.33337H3.33334V8.00004H2.00001V4.00004ZM4.66666 9.33337H3.33333V10.6667H4.66666V9.33337ZM4.66668 10.6667H6.00001V12H4.66668V10.6667ZM7.33334 12H6V13.3334H7.33334V12ZM7.33333 13.3334H8.66666V14.6667H7.33333V13.3334ZM10 12H8.66668V13.3334H10V12ZM11.3333 10.6667H12.6667V9.33337H11.3333V10.6667H10V12H11.3333V10.6667ZM12.6667 8.00004H14V4.00004H15.3333V8.00004H14V9.33337H12.6667V8.00004ZM6 2.6667H7.33334V4.00003H6V2.6667ZM8.66666 4.00004H7.33333V5.33337H8.66666V4.00004ZM14 2.6667H12.6667V4.00003H14V2.6667Z" fill="#FCEF50"/>
</svg>
