<svg width="16" height="16" viewBox="0 0 16 16" fill="none" xmlns="http://www.w3.org/2000/svg">
<path fill-rule="evenodd" clip-rule="evenodd" d="M8.66663 1.33337H7.33329V5.33337H8.66663V1.33337ZM8.66663 10.6667H7.33329V14.6667H8.66663V10.6667ZM14.6665 7.33335V8.66669H10.6665V7.33335H14.6665ZM5.33313 8.66669V7.33335H1.33313L1.33313 8.66669H5.33313ZM9.9998 4.66669H11.3331V6.00002H9.9998V4.66669ZM12.6664 3.33335H11.3331V4.66669H12.6664V3.33335ZM5.9998 4.66669H4.66646V6.00002H5.9998V4.66669ZM3.33319 3.33335H4.66653V4.66669H3.33319V3.33335ZM9.9998 11.3334H11.3331V12.6667H12.6664V11.3333H11.3331V10H9.9998V11.3334ZM4.66646 11.3333V10H5.9998V11.3334H4.66653V12.6667H3.33319V11.3333H4.66646Z" fill="#FCEF50"/>
</svg>
