<svg width="16" height="16" viewBox="0 0 16 16" fill="none" xmlns="http://www.w3.org/2000/svg">
<g clip-path="url(#clip0_538_3138)">
<path fill-rule="evenodd" clip-rule="evenodd" d="M14.6667 2.66669H2.66675H1.33341V4.00002V12.0001H1.33337V13.3334H8.00004V12.0001H2.66675V4.00002H13.3334V8.00006H14.6667V4.00002H14.6667V2.66669ZM4.00004 5.33339H5.33337V6.66673H4.00004V5.33339ZM6.66671 8.00006H5.33337V6.66673H6.66671V8.00006ZM9.33337 8.00006L9.33337 9.33339H6.66671V8.00006H9.33337ZM10.6667 6.66673V8.00006H9.33337V6.66673H10.6667ZM10.6667 6.66673V5.33339H12V6.66673H10.6667ZM16 12.0001H14.6667V10.6667H13.3334V9.33339H12V10.6667H13.3334V12.0001H9.33337V13.3334H13.3334V14.6667L12 14.6667V16.0001H13.3334V14.6667H14.6667V13.3334H16V12.0001Z" fill="#FFD369"/>
</g>
<defs>
<clipPath id="clip0_538_3138">
<rect width="16" height="16" fill="white"/>
</clipPath>
</defs>
</svg>
