<svg width="16" height="16" viewBox="0 0 16 16" fill="none" xmlns="http://www.w3.org/2000/svg">
<g clip-path="url(#clip0_870_4014)">
<path fill-rule="evenodd" clip-rule="evenodd" d="M14.8758 6.11438L15.8186 7.05719L14.8758 8.00002L15.8186 8.94281L14.8758 9.88562L13.933 8.94283L12.9902 9.88562L12.0474 8.94281L12.9902 8.00002L12.0473 7.05719L12.9902 6.11438L13.933 7.05721L14.8758 6.11438ZM9.21891 0.45752L12.9901 4.22876L12.0473 5.17156L11.1046 4.22878L10.1618 5.17155L9.21897 4.22874L10.1617 3.28597L8.27612 1.40035L7.33333 2.34314L6.39054 1.40035L1.67652 6.11437L0.733709 5.17156L5.44775 0.45752L6.39054 1.40031L7.33333 0.45752L8.27612 1.40031L9.21891 0.45752ZM6.39054 14.5997L7.33333 15.5425L8.27614 14.5997L7.33333 13.6569L6.39054 14.5997L1.67651 9.88562L0.733705 10.8284L5.44775 15.5425L6.39054 14.5997ZM12.0474 10.8284L12.9902 11.7712L9.21894 15.5425L8.27613 14.5996L10.1618 12.714L9.21897 11.7712L10.1618 10.8284L11.1046 11.7712L12.0474 10.8284ZM1.67651 6.11438L2.61932 7.05719L1.67651 8L0.733705 7.05719L1.67651 6.11438ZM2.61932 8.94281L1.67651 8L0.733705 8.94281L1.67651 9.88562L2.61932 8.94281ZM6.39054 7.05717L7.33335 7.99998L6.39054 8.94279L5.44773 7.99998L6.39054 7.05717ZM8.27612 3.28593L9.21893 4.22874L6.3905 7.05717L5.4477 6.11436L8.27612 3.28593ZM9.21897 11.7712L6.39054 8.94279L5.44773 9.8856L8.27616 12.714L9.21897 11.7712Z" fill="#FF6B69"/>
</g>
<defs>
<clipPath id="clip0_870_4014">
<rect width="16" height="16" fill="white"/>
</clipPath>
</defs>
</svg>
