<svg width="16" height="16" viewBox="0 0 16 16" fill="none" xmlns="http://www.w3.org/2000/svg">
<path fill-rule="evenodd" clip-rule="evenodd" d="M4.00004 1.33331H9.33337V2.66665H4.00004V1.33331ZM2.66671 3.99998L2.66671 2.66665L4.00004 2.66665V3.99998H2.66671ZM2.66671 9.33331H1.33337V3.99998H2.66671V9.33331ZM4.00004 10.6666L2.66671 10.6666L2.66671 9.33331L4.00004 9.33331V10.6666ZM9.33337 10.6666V12H4.00004V10.6666H9.33337ZM10.6667 9.33331L9.33337 9.33331V10.6666H10.6667V12H12V13.3333H13.3334V14.6666H14.6667V13.3333H13.3334V12H12V10.6666H10.6667V9.33331ZM10.6667 3.99998H12V9.33331H10.6667V3.99998ZM10.6667 3.99998V2.66665L9.33337 2.66665V3.99998H10.6667Z" fill="white" fill-opacity="0.4"/>
</svg>
