<svg width="16" height="16" viewBox="0 0 16 16" fill="none" xmlns="http://www.w3.org/2000/svg">
<path fill-rule="evenodd" clip-rule="evenodd" d="M2 2.66669H3.33333V12H14V13.3333H3.33333V13.3334H2V13.3333V12V2.66669ZM6 9.33333H4.66667V10.6667H6V9.33333ZM7.33333 8V9.33333H6V8H7.33333ZM8.66667 8V6.66667H7.33333V8H8.66667ZM10 8H8.66667L8.66667 9.33333H10V8ZM11.3333 6.66667H10V8H11.3333V6.66667ZM12.6667 5.33333V6.66667L11.3333 6.66667V5.33333H12.6667ZM12.6667 5.33333L12.6667 4H14V5.33333L12.6667 5.33333Z" fill="#FFD369"/>
</svg>
