<svg width="16" height="16" viewBox="0 0 16 16" fill="none" xmlns="http://www.w3.org/2000/svg">
<path fill-rule="evenodd" clip-rule="evenodd" d="M8.00008 1.33331H12.0001V2.66665H8.00024V6.66661H6.66691V2.66661H8.00008V1.33331ZM8.00008 6.66665H12.0001V7.99998H8.00008V6.66665ZM13.3336 2.66661H12.0002V6.66661H13.3336V2.66661ZM6.00008 10.6666H4.66675V13.3333V14.6666V14.6666H15.3334V14.6666H15.3336V10.6666H14.0002V13.3333H6.00008V10.6666H14.0001V9.33331H6.00008V10.6666ZM4.00004 6.66663H2.66671L2.66671 5.33329H1.33337V6.66663L2.66671 6.66663V7.99996H1.33337V9.33329H2.66671L2.66671 7.99996H4.00004V9.33329H5.33337V7.99996H4.00004V6.66663ZM4.00004 6.66663L5.33337 6.66663V5.33329H4.00004V6.66663Z" fill="#FFD369"/>
</svg>
