<svg width="16" height="16" viewBox="0 0 16 16" fill="none" xmlns="http://www.w3.org/2000/svg">
<path fill-rule="evenodd" clip-rule="evenodd" d="M8.00004 0.666687H9.33337V6.00002H14.6667V7.33335V8.66669H13.3334V7.33335L9.33337 7.33335H8.00004V6.00002V3.33335L6.66671 3.33335V2.00002H8.00004V0.666687ZM5.33337 4.66669L5.33337 3.33335H6.66671V4.66669L5.33337 4.66669ZM4.00004 6.00002V4.66669H5.33337V6.00002H4.00004ZM2.66671 7.33335L2.66671 6.00002H4.00004V7.33335H2.66671ZM9.33337 12.6667V14H8.00004V15.3334H6.66671V10H1.33337V8.66669V7.33335H2.66671V8.66669L6.66671 8.66669H8.00004V10V12.6667L9.33337 12.6667ZM10.6667 11.3334V12.6667H9.33337V11.3334H10.6667ZM12 10V11.3334H10.6667V10H12ZM12 10H13.3334V8.66669L12 8.66669V10Z" fill="#FFD369"/>
</svg>
