<svg width="16" height="16" viewBox="0 0 16 16" fill="none" xmlns="http://www.w3.org/2000/svg">
<path d="M7.65146 2C4.38941 1.99958 1.60867 4.36532 1.08639 7.58529C0.564114 10.8053 2.45452 13.9287 5.54946 14.9593C5.88279 15.0193 6.00212 14.8147 6.00212 14.6387C6.00212 14.4807 5.99679 14.062 5.99479 13.5053C4.14479 13.9053 3.75412 12.6133 3.75412 12.6133C3.63234 12.2113 3.37051 11.8662 3.01612 11.6407C2.41612 11.228 3.06212 11.2373 3.06212 11.2373C3.48924 11.2959 3.86516 11.549 4.08012 11.9227C4.26208 12.2535 4.56863 12.498 4.93166 12.6017C5.29469 12.7055 5.68414 12.66 6.01346 12.4753C6.04441 12.138 6.19448 11.8227 6.43679 11.586C4.96079 11.4187 3.40879 10.848 3.40879 8.29933C3.4006 7.64013 3.64539 7.00286 4.09279 6.51867C3.89036 5.94487 3.9142 5.3155 4.15946 4.75867C4.15946 4.75867 4.71746 4.57933 5.98746 5.43933C7.07669 5.14067 8.22623 5.14067 9.31546 5.43933C10.5861 4.57867 11.1435 4.75867 11.1435 4.75867C11.3899 5.31524 11.4137 5.94505 11.2101 6.51867C11.6592 7.00282 11.9038 7.64176 11.8928 8.302C11.8928 10.8573 10.3395 11.4187 8.85812 11.5833C9.17767 11.91 9.34155 12.3582 9.30812 12.814C9.30812 13.7033 9.30012 14.4207 9.30012 14.6387C9.30012 14.8167 9.41879 15.0233 9.75812 14.958C12.8518 13.9256 14.7402 10.802 14.2168 7.58288C13.6934 4.36377 10.9128 1.99925 7.65146 2Z" fill="black" fill-opacity="0.4"/>
</svg>
