<svg width="16" height="16" viewBox="0 0 16 16" fill="none" xmlns="http://www.w3.org/2000/svg">
<path d="M13.33 4.45868C13.9276 4.10141 14.3748 3.53884 14.588 2.87601C14.0264 3.20921 13.412 3.44393 12.7713 3.57001C11.8831 2.63036 10.4757 2.4017 9.33561 3.01178C8.19553 3.62187 7.60501 4.91967 7.89401 6.18001C5.59375 6.06453 3.45065 4.97796 1.99801 3.19068C1.2399 4.49829 1.62731 6.16987 2.88334 7.01068C2.42915 6.99608 1.98503 6.8731 1.58801 6.65201C1.58801 6.66401 1.58801 6.67601 1.58801 6.68801C1.58827 8.05011 2.54826 9.2234 3.88334 9.49335C3.46205 9.60796 3.02015 9.62484 2.59134 9.54268C2.96681 10.7075 4.04038 11.5055 5.26401 11.5293C4.25056 12.3248 2.99899 12.7561 1.71068 12.754C1.48232 12.7543 1.25415 12.7412 1.02734 12.7147C2.3356 13.5554 3.85826 14.0016 5.41334 14C7.57684 14.0149 9.65603 13.1619 11.1858 11.632C12.7156 10.1021 13.5684 8.02284 13.5533 5.85935C13.5533 5.73535 13.5505 5.61201 13.5447 5.48935C14.105 5.08441 14.5886 4.58278 14.9727 4.00801C14.4507 4.23939 13.897 4.39129 13.33 4.45868Z" fill="black" fill-opacity="0.4"/>
</svg>
