<svg width="16" height="16" viewBox="0 0 16 16" fill="none" xmlns="http://www.w3.org/2000/svg">
<path d="M8.01743 1.3335C4.75538 1.33308 1.97464 3.69882 1.45236 6.91878C0.930081 10.1387 2.82049 13.2621 5.91543 14.2928C6.24876 14.3528 6.36809 14.1482 6.36809 13.9722C6.36809 13.8142 6.36276 13.3955 6.36076 12.8388C4.51076 13.2388 4.12009 11.9468 4.12009 11.9468C3.9983 11.5448 3.73648 11.1997 3.38209 10.9742C2.78209 10.5615 3.42809 10.5708 3.42809 10.5708C3.85521 10.6294 4.23113 10.8825 4.44609 11.2562C4.62805 11.587 4.9346 11.8315 5.29763 11.9352C5.66066 12.039 6.0501 11.9935 6.37943 11.8088C6.41037 11.4715 6.56045 11.1562 6.80276 10.9195C5.32676 10.7522 3.77476 10.1815 3.77476 7.63283C3.76657 6.97363 4.01136 6.33636 4.45876 5.85216C4.25633 5.27837 4.28017 4.649 4.52543 4.09216C4.52543 4.09216 5.08343 3.91283 6.35343 4.77283C7.44266 4.47417 8.59219 4.47417 9.68143 4.77283C10.9521 3.91216 11.5094 4.09216 11.5094 4.09216C11.7558 4.64874 11.7797 5.27855 11.5761 5.85216C12.0251 6.33632 12.2697 6.97526 12.2588 7.6355C12.2588 10.1908 10.7054 10.7522 9.22409 10.9168C9.54364 11.2435 9.70752 11.6917 9.67409 12.1475C9.67409 13.0368 9.66609 13.7542 9.66609 13.9722C9.66609 14.1502 9.78476 14.3568 10.1241 14.2915C13.2177 13.2591 15.1061 10.1355 14.5828 6.91637C14.0594 3.69726 11.2788 1.33275 8.01743 1.3335Z" fill="white"/>
</svg>
