<svg width="16" height="16" viewBox="0 0 16 16" fill="none" xmlns="http://www.w3.org/2000/svg">
<path d="M12.908 13.9954H3.09204C2.49193 13.9946 2.00574 13.5081 2.00537 12.908V3.09204C2.00611 2.49219 2.49219 2.00611 3.09204 2.00537H12.9074C13.5074 2.0061 13.9939 2.49198 13.9954 3.09204V12.908C13.9946 13.5083 13.5083 13.9946 12.908 13.9954ZM4.4487 6.4467L4.19004 7.40004H5.04204L4.49137 9.64404C4.45091 9.82154 4.42857 10.0027 4.4247 10.1847C4.39372 10.4776 4.49855 10.7686 4.70923 10.9745C4.9199 11.1804 5.21324 11.2784 5.50537 11.2407C6.12521 11.2138 6.682 10.8537 6.9607 10.2994L6.7427 11.166H7.95004L8.6387 8.40537C8.81204 7.6987 9.15337 7.3387 9.65137 7.3387C9.82832 7.3255 10.0021 7.39068 10.1268 7.51698C10.2514 7.64328 10.3143 7.81795 10.2987 7.9947C10.3005 8.126 10.2813 8.25675 10.242 8.38204L9.89004 9.6527C9.83928 9.82866 9.81369 10.0109 9.81404 10.194C9.79497 10.4865 9.90694 10.7724 10.1196 10.9741C10.3323 11.1758 10.6236 11.2725 10.9147 11.238C11.6014 11.238 12.08 10.7714 12.3394 9.8507L11.868 9.6687C11.684 10.1947 11.488 10.4507 11.268 10.4507C11.1074 10.4507 11.0227 10.3394 11.0227 10.128C11.0272 10.0172 11.044 9.90719 11.0727 9.80004L11.4194 8.56137C11.498 8.30651 11.5384 8.04141 11.5394 7.7747C11.579 7.42031 11.4675 7.06561 11.2321 6.79773C10.9967 6.52985 10.6593 6.37361 10.3027 6.36737C9.60392 6.4628 9.00059 6.90465 8.6987 7.54204L8.9387 6.46404H7.08004L6.81937 7.39737H7.68204L7.1487 9.5227C6.96247 10.0448 6.48443 10.4069 5.93137 10.4447C5.91083 10.445 5.8903 10.4434 5.87004 10.44C5.70804 10.402 5.61404 10.34 5.61404 10.1387C5.61782 9.97228 5.64245 9.80699 5.68737 9.6467L6.49804 6.4467H4.4487ZM6.01204 4.3387C5.75242 4.3387 5.51253 4.47721 5.38273 4.70204C5.25292 4.92687 5.25292 5.20387 5.38273 5.4287C5.51253 5.65354 5.75242 5.79204 6.01204 5.79204V5.77537C6.2064 5.77695 6.39352 5.70171 6.5327 5.56604C6.66916 5.4313 6.74538 5.24713 6.74404 5.05537C6.73891 4.65571 6.41172 4.33537 6.01204 4.3387Z" fill="white"/>
</svg>
