<svg width="60" height="60" viewBox="0 0 60 60" fill="none" xmlns="http://www.w3.org/2000/svg">
<path fill-rule="evenodd" clip-rule="evenodd" d="M23.5 9.91663H7.83335H3.91669V13.8333V29.5H7.83333V33.4165H11.75V37.3332H15.6667V41.2499H19.5833V45.1665H23.5V49.0832H27.4167V45.1665H31.3333V41.2499H35.25V37.3332H39.1667V33.4165H43.0833V29.4999H39.1667V25.5832H35.25V21.6665H31.3333V17.7499H27.4167V13.8332H23.5V9.91663ZM27.4167 17.7499V21.6665H31.3333V25.5832H35.25V29.4999H39.1667V33.4165H35.25V37.3332H31.3333V41.2499H27.4167V45.1665H23.5V41.2499H19.5833V37.3332H15.6667V33.4165H11.75V29.4999H7.83335V13.8333H23.5V17.7499H27.4167ZM11.75 17.7499H15.6667V21.6665H11.75V17.7499Z" fill="#FFD369"/>
</svg>
