<svg width="16" height="16" viewBox="0 0 16 16" fill="none" xmlns="http://www.w3.org/2000/svg">
<path fill-rule="evenodd" clip-rule="evenodd" d="M10 1.33333H11.3333V2.66667L12.6667 2.66667H14V5.33333V6.66667V14.6667H12.6667H3.33333H2V6.66667V5.33333V2.66667H3.33333L4.66667 2.66667V1.33333H6V2.66667H10V1.33333ZM12.6667 5.33333L12.6667 4H3.33333V5.33333H12.6667ZM12.6667 6.66667H3.33333V13.3333H12.6667L12.6667 6.66667ZM10.6667 8V9.33333H9.33333V8H10.6667ZM8 10.6667V9.33333H9.33333V10.6667L8 10.6667ZM6.66667 10.6667L8 10.6667V12H6.66667V10.6667ZM6.66667 10.6667H5.33333V9.33333H6.66667V10.6667Z" fill="#78FF69"/>
</svg>
