<svg width="17" height="16" viewBox="0 0 17 16" fill="none" xmlns="http://www.w3.org/2000/svg">
<path d="M13.144 14.6667L11.7826 13.4667L11.0153 12.7533L10.2039 12L10.5373 13.1727H3.35862C2.63969 13.1701 2.05877 12.5856 2.06061 11.8667V3.30467C2.05951 2.58626 2.64022 2.00257 3.35862 2H11.8459C12.5644 2.00257 13.1451 2.58626 13.144 3.30467V14.6667ZM10.1273 9.00533C9.84618 9.38235 9.44147 9.64853 8.98395 9.75733C9.17195 9.99733 9.39862 10.2687 9.40062 10.2713C10.1654 10.2875 10.8895 9.92782 11.3386 9.30867C11.3156 8.02514 11.0039 6.76327 10.4266 5.61667C9.91837 5.21784 9.29971 4.98509 8.65462 4.95H8.64728L8.55862 5.05133C9.13482 5.2061 9.67217 5.48 10.1359 5.85533C9.54584 5.53094 8.89825 5.32444 8.22928 5.24733C7.8041 5.20011 7.37478 5.20436 6.95062 5.26C6.92063 5.26059 6.89075 5.26372 6.86128 5.26933H6.84262C6.34551 5.32657 5.86049 5.46155 5.40528 5.66933C5.17728 5.774 5.03728 5.85 5.03128 5.85267C5.02528 5.85533 5.03128 5.85267 5.03128 5.848C5.52321 5.4611 6.09073 5.18154 6.69728 5.02733L6.63062 4.95133H6.62662C5.98154 4.98651 5.3629 5.21925 4.85462 5.618C4.27522 6.76382 3.96339 8.02619 3.94262 9.31C4.38617 9.93325 5.11128 10.2943 5.87595 10.2727C5.87595 10.2727 6.11462 9.982 6.30062 9.74667C5.85462 9.63458 5.46163 9.37055 5.18928 9C5.19395 9.00333 5.25995 9.048 5.36662 9.10667C5.37378 9.11509 5.38264 9.1219 5.39262 9.12667C5.40106 9.13251 5.40998 9.13764 5.41928 9.142C5.42982 9.14679 5.43987 9.15259 5.44928 9.15933C5.59802 9.24132 5.75241 9.31261 5.91128 9.37267C6.21333 9.49227 6.52577 9.58377 6.84462 9.646C7.12378 9.69863 7.4072 9.72541 7.69128 9.726C7.95764 9.72597 8.22343 9.70142 8.48528 9.65267C8.80065 9.59729 9.10865 9.50603 9.40328 9.38067C9.65778 9.28278 9.90061 9.1569 10.1273 9.00533ZM8.76862 8.72067C8.47857 8.74596 8.20274 8.59061 8.07403 8.32946C7.94531 8.06831 7.99011 7.75493 8.18683 7.5403C8.38356 7.32567 8.69186 7.25381 8.96321 7.35936C9.23455 7.4649 9.41328 7.72619 9.41328 8.01733C9.42797 8.38927 9.13978 8.70337 8.76795 8.72067H8.76862ZM6.45662 8.72067C6.09185 8.68887 5.81192 8.38349 5.81192 8.01733C5.81192 7.65118 6.09185 7.34579 6.45662 7.314C6.62465 7.31451 6.7853 7.38306 6.90195 7.504C7.03431 7.64138 7.10631 7.82595 7.10195 8.01667C7.11738 8.38925 6.82848 8.70409 6.45595 8.72067H6.45662Z" fill="white" fill-opacity="0.4"/>
</svg>
