<svg width="16" height="16" viewBox="0 0 16 16" fill="none" xmlns="http://www.w3.org/2000/svg">
<path fill-rule="evenodd" clip-rule="evenodd" d="M5.99992 1.33331H3.33325V2.66663H2V3.99996H3.33325V4H0.666626V8H2V9.33333H3.33325V9.62476V10.6666H4.66659V9.62476H4.66663V12H5.99996V8.85889H5.99992V1.33331ZM12.6667 1.33331H10V8.54468V9.91931V12H11.3333V10.6666H12.6666V9.91931H12.6667V9.33333H14V8.25012V8V2.66663H12.6667V1.33331ZM6 12.1188V13.3333H7.33325V13.4935V14.6666H8.66658V13.4935V13.3333V4H7.33333V2.66663H6V12V12.1188ZM8.66663 12.1777V13.3333H9.99996V12.1777V12V2.66663H8.66663V12V12.1777ZM15.3333 4H14V8H15.3333V4Z" fill="#FFD369"/>
</svg>
