<svg width="16" height="16" viewBox="0 0 16 16" fill="none" xmlns="http://www.w3.org/2000/svg">
<g clip-path="url(#clip0_655_3115)">
<g clip-path="url(#clip1_655_3115)">
<path fill-rule="evenodd" clip-rule="evenodd" d="M5.99994 1.33331H3.33327V2.66664H1.99995V3.99997H3.33328V2.66665H5.99994V1.33331ZM12.6666 1.33331H9.99995V2.66664H8.66663V3.99997H9.99996V2.66665H12.6666V1.33331ZM1.99996 3.99997H0.666626V7.99997H1.99995V9.33331H3.33328V7.99997H1.99996V3.99997ZM4.66661 9.33331H3.33327V10.6666H4.66661V9.33331ZM4.66663 10.6666H5.99996V12H4.66663V10.6666ZM7.33328 12H5.99995V13.3333H7.33328V12ZM7.33327 13.3333H8.66661V14.6666H7.33327V13.3333ZM9.99996 12H8.66663V13.3333H9.99996V12ZM11.3333 10.6666H12.6666V9.33331H11.3333V10.6666H9.99995V12H11.3333V10.6666ZM12.6666 7.99997H13.9999V3.99997H15.3333V7.99997H14V9.33331H12.6666V7.99997ZM5.99995 2.66664H7.33328V3.99997H5.99995V2.66664ZM8.66661 3.99997H7.33327V5.33331H8.66661V3.99997ZM14 2.66664H12.6666V3.99997H14V2.66664Z" fill="#FFD369"/>
<path fill-rule="evenodd" clip-rule="evenodd" d="M5.99992 1.33331H3.33325V2.66663H2V3.99996H3.33325V4H0.666626V8H2V9.33333H3.33325V9.62476V10.6666H4.66659V9.62476H4.66663V12H5.99996V8.85889H5.99992V1.33331ZM12.6667 1.33331H10V8.54468V9.91931V12H11.3333V10.6666H12.6666V9.91931H12.6667V9.33333H14V8.25012V8V2.66663H12.6667V1.33331ZM6 12.1188V13.3333H7.33325V13.4935V14.6666H8.66658V13.4935V13.3333V4H7.33333V2.66663H6V12V12.1188ZM8.66663 12.1777V13.3333H9.99996V12.1777V12V2.66663H8.66663V12V12.1777ZM15.3333 4H14V8H15.3333V4Z" fill="#FFD369" fill-opacity="0.5"/>
</g>
</g>
<defs>
<clipPath id="clip0_655_3115">
<rect width="16" height="16" fill="white"/>
</clipPath>
<clipPath id="clip1_655_3115">
<rect width="16" height="16" fill="white"/>
</clipPath>
</defs>
</svg>
