<svg width="16" height="16" viewBox="0 0 16 16" fill="none" xmlns="http://www.w3.org/2000/svg">
<path fill-rule="evenodd" clip-rule="evenodd" d="M6.66671 2H5.33337V3.33333H4.00004V4.66667H5.33337L5.33337 3.33333H6.66671V4.66667H8.00004V6H6.66671V7.33333H5.33337L5.33337 8.66667H4.00004V10L2.66671 10V8.66667H1.33337V10H2.66671L2.66671 11.3333H4.00004V10L5.33337 10L6.66671 10V11.3333L8.00004 11.3333V12.6667H6.66671V14H8.00004V12.6667H9.33337V11.3333H8.00004V10V8.66667H9.33337V7.33333L10.6667 7.33333V8.66667H12V10H13.3334L13.3334 8.66667H14.6667V7.33333H13.3334V8.66667H12V7.33333H10.6667V6H12V3.33333H9.33337V4.66667H8.00004V3.33333H6.66671V2Z" fill="#FFD369"/>
</svg>
