<svg width="16" height="16" viewBox="0 0 16 16" fill="none" xmlns="http://www.w3.org/2000/svg">
<g clip-path="url(#clip0_539_2281)">
<path fill-rule="evenodd" clip-rule="evenodd" d="M14.6669 2.66675H2.66687H1.33354V4.00008V12.0001H1.3335V13.3335H8.00016V12.0001H2.66687V4.00008H13.3335V8.00012H14.6668V4.00008H14.6669V2.66675ZM4.00016 5.33346H5.3335V6.66679H4.00016V5.33346ZM6.66683 8.00012H5.3335V6.66679H6.66683V8.00012ZM9.3335 8.00012L9.3335 9.33346H6.66683V8.00012H9.3335ZM10.6668 6.66679V8.00012H9.3335V6.66679H10.6668ZM10.6668 6.66679V5.33346H12.0002V6.66679H10.6668ZM16.0002 12.0001H14.6668V10.6668H13.3335V9.33346H12.0002V10.6668H13.3335V12.0001H9.3335V13.3335H13.3335V14.6668L12.0002 14.6668V16.0001H13.3335V14.6668H14.6668V13.3335H16.0002V12.0001Z" fill="#FFD369"/>
</g>
<defs>
<clipPath id="clip0_539_2281">
<rect width="16" height="16" fill="white"/>
</clipPath>
</defs>
</svg>
