<svg width="17" height="16" viewBox="0 0 17 16" fill="none" xmlns="http://www.w3.org/2000/svg">
<path d="M13.3906 4.45874C13.9882 4.10147 14.4354 3.5389 14.6486 2.87607C14.0871 3.20928 13.4726 3.44399 12.832 3.57007C11.9437 2.63043 10.5363 2.40176 9.39622 3.01184C8.25614 3.62193 7.66562 4.91973 7.95462 6.18007C5.65436 6.06459 3.51126 4.97802 2.05862 3.19074C1.30051 4.49835 1.68792 6.16993 2.94395 7.01074C2.48976 6.99614 2.04564 6.87317 1.64862 6.65207C1.64862 6.66407 1.64862 6.67607 1.64862 6.68807C1.64888 8.05018 2.60887 9.22346 3.94395 9.49341C3.52266 9.60802 3.08076 9.6249 2.65195 9.54274C3.02742 10.7076 4.10099 11.5056 5.32462 11.5294C4.31117 12.3248 3.0596 12.7562 1.77128 12.7541C1.54293 12.7544 1.31476 12.7413 1.08795 12.7147C2.39621 13.5554 3.91886 14.0016 5.47395 14.0001C7.63745 14.0149 9.71664 13.162 11.2464 11.6321C12.7762 10.1022 13.629 8.0229 13.614 5.85941C13.614 5.73541 13.6111 5.61207 13.6053 5.48941C14.1656 5.08448 14.6492 4.58284 15.0333 4.00807C14.5113 4.23945 13.9576 4.39136 13.3906 4.45874Z" fill="white" fill-opacity="0.4"/>
</svg>
